<svg width="40" height="40" viewBox="0 0 40 40" fill="none" xmlns="http://www.w3.org/2000/svg">
<circle cx="20" cy="20" r="20" fill="#F9F7FF"/>
<g clip-path="url(#clip0_1_518)">
<path d="M22.0933 19.8749C21.8262 19.7033 21.5362 19.5702 21.232 19.4795C21.0453 19.4229 20.8387 19.3675 20.6253 19.3149C20.4387 19.2629 20.2173 19.2095 19.944 19.1495C19.6178 19.0811 19.2977 18.9866 18.9867 18.8669C18.8264 18.8046 18.6849 18.7019 18.576 18.5689C18.4963 18.46 18.4584 18.326 18.4693 18.1915C18.4691 18.0473 18.5172 17.9072 18.606 17.7935C18.7303 17.648 18.8915 17.5386 19.0727 17.4769C19.3774 17.3721 19.6986 17.3234 20.0207 17.3329C20.2699 17.3287 20.5184 17.3615 20.758 17.4302C20.9169 17.4749 21.0666 17.5476 21.2 17.6449C21.2863 17.7064 21.3598 17.7841 21.4167 17.8735C21.4578 17.9512 21.514 18.02 21.5818 18.0759C21.6497 18.1318 21.7279 18.1737 21.812 18.1993C21.8961 18.2248 21.9845 18.2335 22.072 18.2248C22.1595 18.216 22.2444 18.1901 22.3218 18.1484C22.3992 18.1067 22.4676 18.0502 22.5231 17.9819C22.5785 17.9137 22.6199 17.8352 22.6449 17.7509C22.6699 17.6666 22.678 17.5782 22.6687 17.4908C22.6594 17.4034 22.6329 17.3187 22.5907 17.2415C22.4501 16.9929 22.2602 16.7755 22.0327 16.6029C21.7698 16.4009 21.4716 16.2497 21.1533 16.1569C20.786 16.0483 20.4044 15.9953 20.0213 15.9995C19.5344 15.989 19.0497 16.0681 18.5913 16.2329C18.1768 16.3838 17.8127 16.6474 17.54 16.9942C17.2788 17.339 17.1374 17.7596 17.1373 18.1922C17.1265 18.6228 17.2629 19.0442 17.524 19.3869C17.7761 19.7043 18.1065 19.9506 18.4827 20.1015C18.7669 20.2109 19.058 20.3018 19.354 20.3735C19.3593 20.3755 19.3633 20.3802 19.3687 20.3815C19.4967 20.4202 19.7007 20.4715 19.9953 20.5349C20.1107 20.5602 20.2187 20.5875 20.3267 20.6149C20.3373 20.6175 20.3527 20.6209 20.3627 20.6242L20.3747 20.6255C20.54 20.6682 20.6993 20.7115 20.8453 20.7562C21.0247 20.8087 21.1959 20.8859 21.354 20.9855C21.4526 21.0474 21.5354 21.1314 21.596 21.2309C21.6546 21.3522 21.6817 21.4863 21.6747 21.6209C21.6839 21.795 21.6336 21.9671 21.532 22.1089C21.3948 22.2874 21.2092 22.4227 20.9973 22.4989C20.6815 22.6208 20.3444 22.6779 20.006 22.6669C19.6147 22.6819 19.2255 22.6033 18.8707 22.4375C18.7068 22.3502 18.566 22.2253 18.46 22.0729C18.3856 21.9753 18.339 21.8594 18.3253 21.7375C18.3253 21.5607 18.2551 21.3911 18.1301 21.2661C18.0051 21.1411 17.8355 21.0709 17.6587 21.0709C17.4819 21.0709 17.3123 21.1411 17.1873 21.2661C17.0622 21.3911 16.992 21.5607 16.992 21.7375C17.003 22.1309 17.1322 22.5119 17.3627 22.8309C17.5931 23.1626 17.8999 23.434 18.2573 23.6222C18.8012 23.8875 19.4012 24.0172 20.006 24.0002C20.52 24.0126 21.0312 23.9208 21.5087 23.7302C21.9526 23.5599 22.3379 23.2652 22.6187 22.8815C22.8855 22.5077 23.0223 22.0566 23.008 21.5975C23.0142 21.2416 22.9281 20.8902 22.758 20.5775C22.5938 20.2952 22.3662 20.0549 22.0933 19.8755V19.8749ZM26.9073 21.1269C27.0871 20.0312 27.0034 18.9086 26.6632 17.8517C26.3231 16.7949 25.7362 15.8342 24.9511 15.0491C24.166 14.264 23.2053 13.6771 22.1485 13.337C21.0916 12.9968 19.969 12.9131 18.8733 13.0929C18.0644 12.705 17.155 12.5778 16.2707 12.7288C15.3865 12.8799 14.5708 13.3017 13.9365 13.936C13.3021 14.5704 12.8803 15.386 12.7293 16.2703C12.5783 17.1546 12.7055 18.0639 13.0933 18.8729C12.9138 19.9684 12.9975 21.0909 13.3377 22.1476C13.6779 23.2043 14.2647 24.1648 15.0497 24.9498C15.8347 25.7348 16.7952 26.3216 17.852 26.6618C18.9087 27.002 20.0312 27.0858 21.1267 26.9062C21.9356 27.294 22.845 27.4212 23.7293 27.2702C24.6136 27.1192 25.4292 26.6974 26.0635 26.063C26.6979 25.4287 27.1197 24.6131 27.2707 23.7288C27.4217 22.8445 27.2945 21.9351 26.9067 21.1262L26.9073 21.1269ZM23 25.9995C22.4942 25.9993 21.9966 25.8713 21.5533 25.6275C21.4158 25.5518 21.2561 25.5268 21.102 25.5569C20.2804 25.7207 19.4326 25.7002 18.6199 25.4967C17.8072 25.2933 17.0497 24.912 16.4022 24.3804C15.7547 23.8487 15.2333 23.18 14.8755 22.4224C14.5177 21.6649 14.3326 20.8373 14.3333 19.9995C14.334 19.6293 14.3706 19.26 14.4427 18.8969C14.4728 18.7428 14.4478 18.583 14.372 18.4455C14.059 17.8762 13.9392 17.2206 14.0308 16.5774C14.1224 15.9341 14.4203 15.338 14.8797 14.8786C15.3392 14.4193 15.9353 14.1215 16.5786 14.03C17.2218 13.9386 17.8774 14.0584 18.4467 14.3715C18.5843 14.4477 18.7444 14.4727 18.8987 14.4422C19.7202 14.2784 20.5679 14.299 21.3806 14.5025C22.1932 14.706 22.9506 15.0874 23.598 15.619C24.2454 16.1506 24.7668 16.8193 25.1246 17.5768C25.4823 18.3343 25.6674 19.1618 25.6667 19.9995C25.666 20.3697 25.6294 20.739 25.5573 21.1022C25.5272 21.2563 25.5522 21.416 25.628 21.5535C25.8795 22.0103 26.0076 22.5246 25.9996 23.046C25.9916 23.5673 25.8479 24.0775 25.5826 24.5264C25.3173 24.9752 24.9396 25.3472 24.4867 25.6055C24.0338 25.8638 23.5214 25.9996 23 25.9995Z" fill="#1F3E72"/>
</g>
<defs>
<clipPath id="clip0_1_518">
<rect width="16" height="16" fill="white" transform="translate(12 12)"/>
</clipPath>
</defs>
</svg>
