<svg width="40" height="40" viewBox="0 0 40 40" fill="none" xmlns="http://www.w3.org/2000/svg">
<circle cx="20" cy="20" r="20" fill="#F9F7FF"/>
<path d="M26.9459 15.3335C26.4326 15.5668 25.8793 15.7201 25.3059 15.7935C25.8926 15.4401 26.3459 14.8801 26.5593 14.2068C26.0059 14.5401 25.3926 14.7735 24.7459 14.9068C24.2193 14.3335 23.4793 14.0001 22.6393 14.0001C21.0726 14.0001 19.7926 15.2801 19.7926 16.8601C19.7926 17.0868 19.8193 17.3068 19.8659 17.5135C17.4926 17.3935 15.3793 16.2535 13.9726 14.5268C13.7259 14.9468 13.5859 15.4401 13.5859 15.9601C13.5859 16.9535 14.0859 17.8335 14.8593 18.3335C14.3859 18.3335 13.9459 18.2001 13.5593 18.0001V18.0201C13.5593 19.4068 14.5459 20.5668 15.8526 20.8268C15.4331 20.9416 14.9927 20.9576 14.5659 20.8735C14.747 21.4418 15.1016 21.9391 15.5799 22.2954C16.0583 22.6518 16.6362 22.8492 17.2326 22.8601C16.2217 23.6604 14.9686 24.093 13.6793 24.0868C13.4526 24.0868 13.2259 24.0735 12.9993 24.0468C14.2659 24.8601 15.7726 25.3335 17.3859 25.3335C22.6393 25.3335 25.5259 20.9735 25.5259 17.1935C25.5259 17.0668 25.5259 16.9468 25.5193 16.8201C26.0793 16.4201 26.5593 15.9135 26.9459 15.3335Z" fill="#1F3E72"/>
</svg>
