<svg width="40" height="40" viewBox="0 0 40 40" fill="none" xmlns="http://www.w3.org/2000/svg">
<circle cx="20" cy="20" r="20" fill="#F9F7FF"/>
<path d="M18.6668 21.9997L22.1268 19.9997L18.6668 17.9997V21.9997ZM26.3735 16.7797C26.4602 17.093 26.5202 17.513 26.5602 18.0463C26.6068 18.5797 26.6268 19.0397 26.6268 19.4397L26.6668 19.9997C26.6668 21.4597 26.5602 22.533 26.3735 23.2197C26.2068 23.8197 25.8202 24.2063 25.2202 24.373C24.9068 24.4597 24.3335 24.5197 23.4535 24.5597C22.5868 24.6063 21.7935 24.6263 21.0602 24.6263L20.0002 24.6663C17.2068 24.6663 15.4668 24.5597 14.7802 24.373C14.1802 24.2063 13.7935 23.8197 13.6268 23.2197C13.5402 22.9063 13.4802 22.4863 13.4402 21.953C13.3935 21.4197 13.3735 20.9597 13.3735 20.5597L13.3335 19.9997C13.3335 18.5397 13.4402 17.4663 13.6268 16.7797C13.7935 16.1797 14.1802 15.793 14.7802 15.6263C15.0935 15.5397 15.6668 15.4797 16.5468 15.4397C17.4135 15.393 18.2068 15.373 18.9402 15.373L20.0002 15.333C22.7935 15.333 24.5335 15.4397 25.2202 15.6263C25.8202 15.793 26.2068 16.1797 26.3735 16.7797Z" fill="#1F3E72"/>
</svg>
